/* XPM */
static char *_4843c867e514736d0876bd5eef69a40QlAwmz7ehB5bVIPM[] = {
/* columns rows colors chars-per-pixel */
"32 32 184 2 ",
"   c #010101",
".  c #0A0204",
"X  c #010A05",
"o  c #090906",
"O  c #030509",
"+  c #04090A",
"@  c #0B0A0C",
"#  c #0B040B",
"$  c #110002",
"%  c #11030A",
"&  c #110A09",
"*  c #13140D",
"=  c #090D10",
"-  c #190C15",
";  c #0F1B12",
":  c #1C1817",
">  c #1D1918",
",  c #181413",
"<  c #221E1B",
"1  c #1B251D",
"2  c #241720",
"3  c #2A2423",
"4  c #2C2D25",
"5  c #302221",
"6  c #362827",
"7  c #362E2B",
"8  c #2E3128",
"9  c #3B3433",
"0  c #3D3938",
"q  c #3A3D34",
"w  c #413736",
"e  c #423836",
"r  c #463C39",
"t  c #49423C",
"y  c #54403F",
"u  c #533F48",
"i  c #4D4644",
"p  c #4D4948",
"a  c #4D4844",
"s  c #594747",
"d  c #574E4C",
"f  c #584C56",
"g  c #5C5050",
"h  c #6B5150",
"j  c #755B5C",
"k  c #69655C",
"l  c #78605E",
"z  c #6A6A6A",
"x  c #8E000F",
"c  c #94030D",
"v  c #9B010E",
"b  c #8C0112",
"n  c #8F0719",
"m  c #8C0E1E",
"M  c #940213",
"N  c #9D0213",
"B  c #9C041A",
"V  c #950B1B",
"C  c #9B0A1A",
"Z  c #960718",
"A  c #A5000F",
"S  c #A30214",
"D  c #AA0114",
"F  c #AC0B14",
"G  c #A4031A",
"H  c #AB041B",
"J  c #A30B1C",
"K  c #AB0A1B",
"L  c #B30B16",
"P  c #B3031B",
"I  c #B50A1E",
"U  c #BB0A1E",
"Y  c #9F0720",
"T  c #9C0D25",
"R  c #9B1422",
"E  c #961B20",
"W  c #9F1429",
"Q  c #931F2A",
"!  c #A70627",
"~  c #AB0720",
"^  c #A70920",
"/  c #AE0E28",
"(  c #B40C25",
")  c #BD0A2A",
"_  c #A31324",
"`  c #AA142C",
"'  c #AA1C2A",
"]  c #B61024",
"[  c #BD1127",
"{  c #A31B33",
"}  c #B01D30",
"|  c #8F242C",
" . c #9E222C",
".. c #9F2D34",
"X. c #9E2939",
"o. c #8E323D",
"O. c #973235",
"+. c #A92C34",
"@. c #A82A3F",
"#. c #B22D3C",
"$. c #B42036",
"%. c #AA353E",
"&. c #A33139",
"*. c #B4383F",
"=. c #9A3944",
"-. c #AD2E43",
";. c #AE3941",
":. c #A23645",
">. c #B03240",
",. c #B63947",
"<. c #BF3846",
"1. c #9A4A4B",
"2. c #AF4746",
"3. c #AA454E",
"4. c #AC4D52",
"5. c #A54A53",
"6. c #B74C55",
"7. c #B9505E",
"8. c #B95054",
"9. c #BA5363",
"0. c #B45867",
"q. c #B65368",
"w. c #866E6C",
"e. c #83716D",
"r. c #887C7C",
"t. c #9F7879",
"y. c #AD6A6F",
"u. c #AB6568",
"i. c #BF656F",
"p. c #B66B68",
"a. c #BD706A",
"s. c #A76573",
"d. c #B16871",
"f. c #B76773",
"g. c #AD787E",
"h. c #B77A77",
"j. c #B8707B",
"k. c #B27B7C",
"l. c #B5767E",
"z. c #C04854",
"x. c #C4555B",
"c. c #C75F6D",
"v. c #DB5F67",
"b. c #C65F70",
"n. c #C6606B",
"m. c #C26667",
"M. c #C5726C",
"N. c #C26B75",
"B. c #C56F78",
"V. c #DD6871",
"C. c #C27372",
"Z. c #CE7370",
"A. c #C97877",
"S. c #C1797E",
"D. c #C9777A",
"F. c #D77E7A",
"G. c #DA777C",
"H. c #9C837C",
"J. c #BA807F",
"K. c #C08178",
"L. c #CC8279",
"P. c #D88178",
"I. c #A67F80",
"U. c #AE7F85",
"Y. c #BE7681",
"T. c #C87683",
"R. c #D27D82",
"E. c #9B8182",
"W. c #AB8484",
"Q. c #A58C83",
"!. c #AC8888",
"~. c #BE8389",
"^. c #B98689",
"/. c #B98B96",
"(. c #B7AC9A",
"). c #A2ABA6",
"_. c #C78086",
"`. c #C5898C",
"'. c #D18382",
"]. c #D68A8A",
"[. c #C1918D",
"{. c #C58B9A",
"}. c #D28D90",
"|. c #CAA3A8",
/* pixels */
"                                                                ",
"                                                                ",
"                                                                ",
"                                                                ",
"                                                                ",
"                                                                ",
"                                                                ",
"                                      O                         ",
".     X           .   O # X * w s i 8     @ @   .   O .   X   O ",
"  X     O           . O O e.^.i.0.i.T.I.9   . .     O           ",
".           # . X .   o !.7.B G G N N X.`.s * t e <   O X .     ",
"    .   @ O         X l 9.n +.E G H P H m S.h.u.d.Y.g.5 X O .   ",
"    . @   X ; 1 3 < 1 l.! $.M.P.8.Z U F J K G H M Z &.[.7 .   + ",
"# O o   r t.k.h.j.T.[.}.! ( Z b D.,.N D H S S S D P A | I.  O   ",
"#   < W.B.#.S D H D b C.O.G ) B 1.x.N I Z O.m.V.,.S U Z S.7 O   ",
"  @ !.o.M D L F I F M 2.Z.b B m A.#.D N 6.'.5.:._.z.D S n.i   o ",
"X ).|.d.b.T ~ F J P P M n.R.N.D.8.J D ..L.C M S _ '.E D d.q   O ",
"- z 4 3 k k.n P D M +.*.Z } <.' D P A *.a.N [ K R v._ m ^.*     ",
"%   O     e.3.H ` m.S.a.F. .c J I I I Z F.+.c G N N V S.h   # O ",
"#     -   r f.c N.7.B N %.%.G / G K G C &.G.c.@.-.9.~.j . @ X   ",
"  X X   O & !.=.C.` ~ J N S K H H P H ] S R 3.]./.g 1   @ O     ",
"        %   4 H.(.| P F L L K S ' N D H S ( D 4.f     @         ",
". . .     O X   r _.W D v v n 5.H.h.*.N J b { [.2 % $ .     . X ",
"  .   X O O O # O u ^.y.u.y.I.H.& 7 E.g.0.s.{.9   + X           ",
"                o . , q p e >   .   . 3 d i <   O               ",
"                  . .       . &   o           o X               ",
"                .       .         . X   o O   X                 ",
"                                  X                             ",
"                      O             O                           ",
"                O                                               ",
"                                                                ",
"                                                                "
};
