/* XPM */
static char *dac8c2ad29074b06860975a8887d3147KtlCsMY06Y5v4KuI[] = {
/* columns rows colors chars-per-pixel */
"32 32 200 2 ",
"   c #020302",
".  c #0B0102",
"X  c #000B02",
"o  c #0C0E00",
"O  c #02030B",
"+  c #0B030B",
"@  c #000B0B",
"#  c #0A0B0B",
"$  c #130201",
"%  c #1B0301",
"&  c #130A02",
"*  c #1A0C00",
"=  c #13000B",
"-  c #1E0009",
";  c #001204",
":  c #01130C",
">  c #001A0D",
",  c #030C12",
"<  c #0A0C15",
"1  c #0A0018",
"2  c #010C1B",
"3  c #0D0B1C",
"4  c #130310",
"5  c #120E13",
"6  c #190F14",
"7  c #150019",
"8  c #190B1C",
"9  c #021414",
"0  c #0B1415",
"q  c #011A16",
"w  c #0A1916",
"e  c #03161B",
"r  c #0C131B",
"t  c #011A1B",
"y  c #0A1B1D",
"u  c #131315",
"i  c #13121B",
"p  c #141A1A",
"a  c #230203",
"s  c #2C0301",
"d  c #220C00",
"f  c #2F0900",
"g  c #22000C",
"h  c #2D050E",
"j  c #330201",
"k  c #390401",
"l  c #330900",
"z  c #3A0E01",
"x  c #34020B",
"c  c #261B00",
"v  c #3C1202",
"b  c #3B1800",
"n  c #390310",
"m  c #002313",
"M  c #00221D",
"N  c #0A211C",
"B  c #002A1D",
"V  c #11201D",
"C  c #0D0E23",
"Z  c #031720",
"A  c #0A1322",
"S  c #011C23",
"D  c #001E28",
"F  c #0C1E2C",
"G  c #0D1B24",
"H  c #201526",
"J  c #042023",
"K  c #082125",
"L  c #00222B",
"P  c #440200",
"I  c #4C0202",
"U  c #450A01",
"Y  c #4B0A00",
"T  c #4A0209",
"R  c #4F0B0C",
"E  c #540100",
"W  c #5C0300",
"Q  c #520A00",
"!  c #5E0C02",
"~  c #5C020D",
"^  c #550909",
"/  c #5E110B",
"(  c #4E0614",
")  c #5D0C13",
"_  c #640202",
"`  c #6C0102",
"'  c #620E01",
"]  c #6B0E01",
"[  c #62010B",
"{  c #6A020B",
"}  c #720000",
"|  c #7C0101",
" . c #740B00",
".. c #790B02",
"X. c #710409",
"o. c #790108",
"O. c #750A0C",
"+. c #7A0D08",
"@. c #721506",
"#. c #7E160D",
"$. c #6A0612",
"%. c #690A10",
"&. c #7E0314",
"*. c #840101",
"=. c #8B0102",
"-. c #840A00",
";. c #83010A",
":. c #8E0109",
">. c #830A0B",
",. c #8D0B09",
"<. c #930301",
"1. c #9C0201",
"2. c #950A07",
"3. c #93010B",
"4. c #9B010A",
"5. c #97080C",
"6. c #990F0E",
"7. c #860010",
"8. c #860A12",
"9. c #88001C",
"0. c #910211",
"q. c #9C0413",
"w. c #861318",
"e. c #A60006",
"r. c #A40201",
"t. c #AF0000",
"y. c #AF0005",
"u. c #AD0203",
"i. c #A50B01",
"p. c #A50108",
"a. c #A3040B",
"s. c #AE000B",
"d. c #AB000C",
"f. c #A3080C",
"g. c #B30400",
"h. c #B30200",
"j. c #BC0002",
"k. c #B40A00",
"l. c #B90C00",
"z. c #BF0D00",
"x. c #BB0A00",
"c. c #B4020C",
"v. c #BA000D",
"b. c #B40808",
"n. c #A50015",
"m. c #AA0112",
"M. c #A00911",
"N. c #B10011",
"B. c #B00015",
"V. c #BE0115",
"C. c #BF001B",
"Z. c #C20300",
"A. c #C10300",
"S. c #C80000",
"D. c #CF0000",
"F. c #C80106",
"G. c #CA0402",
"H. c #CC0900",
"J. c #C5000A",
"K. c #CA000E",
"L. c #CC010C",
"P. c #D00000",
"I. c #D70200",
"U. c #D30603",
"Y. c #D50006",
"T. c #D50005",
"R. c #D40100",
"E. c #D30A02",
"W. c #D4000C",
"Q. c #D4000C",
"!. c #DD000B",
"~. c #C71200",
"^. c #C00110",
"/. c #C40010",
"(. c #C20014",
"). c #C90013",
"_. c #C50E10",
"`. c #C3001C",
"'. c #D10010",
"]. c #D50711",
"[. c #D30010",
"{. c #DC0413",
"}. c #D10914",
"|. c #D1011B",
" X c #DF001B",
".X c #DB0019",
"XX c #E20001",
"oX c #E00007",
"OX c #E60000",
"+X c #EE0000",
"@X c #E5000B",
"#X c #E9000B",
"$X c #F0000D",
"%X c #E70011",
"&X c #E00314",
"*X c #E20013",
"=X c #EB0011",
"-X c #E0001B",
";X c #EA0018",
":X c #FA071B",
/* pixels */
"t t e e e Z e e J t u 9 B J A t B H A t V u > D e t G w t t t t ",
"S Z e e t Z Z t Z q : q J Z A q > 0 e q 0 0 q D t t Z t e e t t ",
"t t q t t S t t G q > 9 , @ @ a $ X 9 , @ q y t t t t t e q e t ",
"e e e t t t M J t # X X .   . ` E     = X ; i 2 t t t t q e t e ",
"w q q q M t t q ;   . . .   v /.5.%   .   X + , q t t t t t t t ",
"e t t t t q 9 @ X . $ .   *  .@X_.E $       .   , e t Z t t e y ",
"q q q t q 9 @ O     .     E t.D.U.1.j     . .   O @ 9 t t t t e ",
"q t M t w , O   $   X   & 0.!.~.R.K.R X   - .   O O e t t t e e ",
"D 2 e y ; X X   @ , @   l ].g.D.~.l.a.; . X @ =   + . X M t e F ",
"M r 0 > $ [ ;.` _ W x % a W.Y.:XT.S.h.* j %.^ W U $.T X m t 9 t ",
"> p w ; s s.%XA.I.&X XB.' #.W <.<.+.w./ e.'.F.XXi./.;.. > w u > ",
"# p t X . | A.G.G.E.}.6.f.!.} c Y *.V.>.<.!.R.H.OXj._ . @ r r q ",
"0 M e O   d ..R.j.k.W.=._ ] -.|.e. .| | 1.{.x.j.#X` .   1 C Z S ",
"t M 2 = .   W .X$XW.).U ' 1.r.f.b.r.<.W ! =X#XY.m.a ; O 7 Z S D ",
"t t @ . .   s 9.!...+.Q ).{.4.W | 4. Xb.b @.6.;X( . X     9 t y ",
"9 w X         . j.=.s.Q q.=.P X & U q.s.' h.=.| @ . $ $   ; y 5 ",
"r B X % $ @ O O o 3.c. .1.=.. -   T =.r.<.*XR : X . - O @ , G m ",
"t t @ . . X   a o.3.| ` F.B.&   X _ m.2.Q p.` | X . . X   , y q ",
"q 6 , @     o O.W.u. .I c.`.U P E 1.C.&.z q.h.+Xk . X   O < y t ",
"> u < @     Y c.l.G.1.z ! m.:.d.r.1.3.E E c.k.H.;.f X   + 9 t e ",
"> M 3 O X j <.j.1.A.K.W Y ;.=.p.>.! ] U *.j.1.-.v.W .   = 9 t q ",
"w J y O   ~ v.t.u.i.V.3.o.X.U E E U ,.| h.F.v.d./.>.j . # t q t ",
"S t e 9 $ { M.-.q.+.0.{ ` ;.Q E | W 4._ 4.4.a.v.=.8.T . t J y w ",
"L < t m a _ _ Q W E W * * ;.n.m.v.' $.o j l U W E X.T   q J r 9 ",
"t t e w 9 @ X   X O O   g &.4.-.-.:.{ & X @ +       @ 9 q t t t ",
"t t e q 9 @ @ O @ + O X % [ =.=.*.| T $   @ +     X @ 9 q t Z e ",
"e e t w 9 9 @ @ 9 + +   X x ` =.*.E % . O O @ @ @ @ 9 q t t t Z ",
"t t t e e q 9 , @ O O @ ; & I ;.o.f X @ = O @ @ : 9 q q t t t e ",
"e t Z t e e w q : @ O 2 9 X s { ~ & X @ = @ @ : e t t t t t Z t ",
"A t Z t w t q e w 9 , < 9 ; # x h # ; , < 9 q q e t t t t t e t ",
"Z t e Z t e e q r M t r < q 9 5 9 < , e q t w M t t t t t t t e ",
"Z A Z e t t t e 0 M M 3 8 e t q q A i t M t r t Z e Z Z t t t e "
};
